<svg xmlns="http://www.w3.org/2000/svg" viewBox="0 0 200 200">
  <!-- Fond du logo -->
  <circle cx="100" cy="100" r="80" fill="#4F46E5" />
  <circle cx="100" cy="100" r="70" fill="#6366F1" />

  <!-- Éléments de base de données -->
  <ellipse cx="100" cy="60" rx="55" ry="20" fill="#818CF8" />
  <rect x="45" y="60" width="110" height="80" fill="#818CF8" />
  <ellipse cx="100" cy="140" rx="55" ry="20" fill="#818CF8" />

  <!-- Lignes connectant les éléments -->
  <line x1="60" y1="85" x2="140" y2="85" stroke="#4F46E5" stroke-width="6" stroke-linecap="round" />
  <line x1="60" y1="115" x2="140" y2="115" stroke="#4F46E5" stroke-width="6" stroke-linecap="round" />

  <!-- Élément en temps réel (cercle pulsant) -->
  <circle cx="100" cy="100" r="25" fill="#C7D2FE" />
  <circle cx="100" cy="100" r="15" fill="#4F46E5" />
  
  <!-- Rayons symbolisant les données en temps réel -->
  <line x1="100" y1="70" x2="100" y2="80" stroke="#EEF2FF" stroke-width="4" stroke-linecap="round" />
  <line x1="100" y1="120" x2="100" y2="130" stroke="#EEF2FF" stroke-width="4" stroke-linecap="round" />
  <line x1="70" y1="100" x2="80" y2="100" stroke="#EEF2FF" stroke-width="4" stroke-linecap="round" />
  <line x1="120" y1="100" x2="130" y2="100" stroke="#EEF2FF" stroke-width="4" stroke-linecap="round" />
  
  <!-- Diagonales -->
  <line x1="80" y1="80" x2="85" y2="85" stroke="#EEF2FF" stroke-width="4" stroke-linecap="round" />
  <line x1="115" y1="115" x2="120" y2="120" stroke="#EEF2FF" stroke-width="4" stroke-linecap="round" />
  <line x1="80" y1="120" x2="85" y2="115" stroke="#EEF2FF" stroke-width="4" stroke-linecap="round" />
  <line x1="115" y1="85" x2="120" y2="80" stroke="#EEF2FF" stroke-width="4" stroke-linecap="round" />
</svg>
